<?xml version="1.0" encoding="UTF-8"?>
<!DOCTYPE svg PUBLIC "-//W3C//DTD SVG 1.1//EN" "http://www.w3.org/Graphics/SVG/1.1/DTD/svg11.dtd">
<!-- Creator: CorelDRAW 2019 (64 Bit) -->
<svg xmlns="http://www.w3.org/2000/svg" xml:space="preserve" width="36.9987mm" height="6.8125mm" version="1.1" style="shape-rendering:geometricPrecision; text-rendering:geometricPrecision; image-rendering:optimizeQuality; fill-rule:evenodd; clip-rule:evenodd"
viewBox="0 0 474.97 87.46"
 xmlns:xlink="http://www.w3.org/1999/xlink"
 xmlns:xodm="http://www.corel.com/coreldraw/odm/2003">
 <defs>
  <style type="text/css">
   <![CDATA[
    .fil0 {fill:#0085EA;fill-rule:nonzero}
    .fil1 {fill:#019DEF;fill-rule:nonzero}
    .fil2 {fill:#01B4F4;fill-rule:nonzero}
    .fil3 {fill:#02CBFA;fill-rule:nonzero}
    .fil4 {fill:#02E3FF;fill-rule:nonzero}
    .fil5 {fill:#32404F;fill-rule:nonzero}
   ]]>
  </style>
 </defs>
 <g id="Camada_x0020_1">
  <metadata id="CorelCorpID_0Corel-Layer"/>
  <g id="_966542432">
   <path class="fil0" d="M7.6 84.82c-0.71,2.04 -2.94,3.11 -4.97,2.4 -2.04,-0.71 -3.11,-2.94 -2.4,-4.97 0.61,-1.75 1.45,-4.43 2.47,-7.72 7.13,-22.95 23.05,-74.17 47.24,-74.53 0.08,-0.01 0.17,-0.01 0.25,-0.01 0.08,0 0.17,0 0.25,0.01 24.18,0.36 40.11,51.58 47.24,74.53 1.02,3.29 1.85,5.96 2.47,7.72 0.71,2.04 -0.37,4.26 -2.4,4.97 -2.04,0.71 -4.26,-0.37 -4.97,-2.4 -0.67,-1.91 -1.52,-4.64 -2.56,-7.99 -6.62,-21.32 -21.44,-69 -40.02,-69 -18.58,0 -33.4,47.68 -40.02,69 -1.04,3.35 -1.89,6.08 -2.56,7.99z"/>
   <path class="fil1" d="M7.51 85.08c-0.85,1.99 -3.16,2.9 -5.14,2.05 -1.99,-0.85 -2.91,-3.16 -2.05,-5.14 0.94,-2.19 1.53,-3.63 2.22,-5.31 7.79,-19.05 24.79,-60.59 47.42,-60.86 0.07,-0 0.15,-0.01 0.22,-0.01 0.07,0 0.15,0 0.22,0.01 22.64,0.27 39.63,41.8 47.42,60.86 0.68,1.67 1.28,3.12 2.22,5.31 0.85,1.99 -0.07,4.29 -2.05,5.14 -1.98,0.85 -4.29,-0.06 -5.14,-2.05 -0.3,-0.7 -1.2,-2.91 -2.25,-5.46 -7.19,-17.58 -22.89,-55.96 -40.42,-55.96 -17.53,0 -33.23,38.39 -40.42,55.97 -1.04,2.56 -1.95,4.77 -2.25,5.46z"/>
   <path class="fil2" d="M7.31 85.47c-1.07,1.88 -3.45,2.53 -5.33,1.47 -1.88,-1.06 -2.53,-3.45 -1.47,-5.33 0.57,-1 1.44,-2.58 2.4,-4.32 8.69,-15.79 24.6,-44.71 47.12,-44.83l0.14 -0 0.14 0c22.52,0.12 38.44,29.04 47.12,44.83 0.96,1.74 1.83,3.32 2.4,4.32 1.06,1.88 0.41,4.26 -1.47,5.33 -1.88,1.07 -4.26,0.41 -5.33,-1.47 -0.89,-1.56 -1.64,-2.92 -2.46,-4.42 -7.92,-14.39 -22.43,-40.76 -40.41,-40.76 -17.98,0 -32.49,26.38 -40.41,40.76 -0.82,1.49 -1.57,2.86 -2.46,4.42z"/>
   <path class="fil3" d="M7.28 85.53c-1.1,1.86 -3.5,2.48 -5.36,1.38 -1.86,-1.1 -2.48,-3.5 -1.38,-5.36 4.62,-7.81 12.78,-17.29 22.82,-24.08 7.96,-5.38 17.15,-9.11 26.82,-9.11 9.67,0 18.85,3.73 26.82,9.11 10.04,6.78 18.19,16.27 22.82,24.08 1.1,1.86 0.48,4.26 -1.38,5.36 -1.86,1.1 -4.26,0.48 -5.36,-1.38 -4.13,-6.98 -11.44,-15.48 -20.46,-21.57 -6.79,-4.58 -14.5,-7.76 -22.44,-7.76 -7.94,0 -15.66,3.18 -22.44,7.76 -9.01,6.09 -16.32,14.58 -20.46,21.57z"/>
   <path class="fil4" d="M6.04 86.81c-1.81,1.17 -4.23,0.66 -5.4,-1.15 -1.17,-1.81 -0.66,-4.23 1.15,-5.4 8.01,-5.2 16.04,-9.1 24.1,-11.71 8.1,-2.63 16.22,-3.94 24.36,-3.93 8.13,0.01 16.24,1.32 24.31,3.95 8.01,2.6 16.02,6.5 24.02,11.7 1.81,1.17 2.32,3.59 1.15,5.4 -1.17,1.81 -3.59,2.32 -5.4,1.15 -7.4,-4.81 -14.8,-8.41 -22.19,-10.81 -7.33,-2.38 -14.63,-3.57 -21.9,-3.58 -7.3,-0.01 -14.63,1.18 -21.97,3.56 -7.39,2.39 -14.8,6 -22.23,10.83z"/>
   <path class="fil5" d="M163.6 70.96l-18.05 -43.03 -6.29 0 -17.94 43.03 8.79 0 4.78 -11.12 15.32 0 4.6 11.12 8.79 0zm-16.6 -18.75l-9.2 0 4.6 -13.04 4.6 13.04zm27.89 18.75l0 -43.03 -7.74 0 0 43.03 7.74 0zm38.49 -15.66c0,-10.02 -7.05,-17.35 -16.65,-17.35 -9.49,0 -17,7.51 -17,17 0,9.43 7.63,16.77 17.47,16.77 6.52,0 13.22,-3.67 15.37,-10.31l-8.44 0c-1.98,2.33 -3.9,3.2 -7.1,3.2 -4.6,0 -7.98,-2.45 -8.91,-6.35l24.98 0c0.23,-1.11 0.29,-1.8 0.29,-2.97zm-7.63 -3.84l-17.88 0c1.22,-4.13 4.37,-6.4 8.97,-6.4 4.78,0 7.92,2.27 8.91,6.4zm40.24 19.51l-11.47 -16.65 9.84 -15.61 -8.73 0 -5.71 9.72 -5.82 -9.72 -8.73 0 9.9 15.61 -11.41 16.65 9.32 0 6.76 -11.06 6.76 11.06 9.32 0zm63.3 -21.55c0,-12.29 -9.84,-22.24 -22.13,-22.24 -12.81,0 -22.71,9.72 -22.71,22.3 0,12.4 10.02,22.24 22.65,22.24 12.52,0 22.19,-9.72 22.19,-22.3zm-8.04 0.12c0,8.27 -6.06,14.5 -14.21,14.5 -8.15,0 -14.56,-6.4 -14.56,-14.56 0,-8.33 6.29,-14.62 14.56,-14.62 7.98,0 14.21,6.41 14.21,14.67zm21.26 21.43l0 -43.03 -7.74 0 0 43.03 7.74 0zm13.98 0l0 -32.26 -7.74 0 0 32.26 7.74 0zm0.06 -36.92l0 -7.74 -7.74 0 0 7.74 7.74 0zm35.23 4.66l-8.73 0 -7.34 21.37 -7.45 -21.37 -8.62 0 12.99 32.26 6.17 0 12.99 -32.26zm34.07 16.6c0,-10.02 -7.05,-17.35 -16.65,-17.35 -9.49,0 -17,7.51 -17,17 0,9.43 7.63,16.77 17.47,16.77 6.52,0 13.22,-3.67 15.37,-10.31l-8.44 0c-1.98,2.33 -3.9,3.2 -7.1,3.2 -4.6,0 -7.98,-2.45 -8.91,-6.35l24.98 0c0.23,-1.11 0.29,-1.8 0.29,-2.97zm-7.63 -3.84l-17.88 0c1.22,-4.13 4.37,-6.4 8.97,-6.4 4.78,0 7.92,2.27 8.91,6.4zm20.38 19.51l0 -32.26 -7.75 0 0 32.26 7.75 0zm0.06 -36.92l0 -7.74 -7.74 0 0 7.74 7.74 0zm20.85 11.36l0 -7.45 -0.58 0c-3.32,0 -4.95,0.93 -6.99,3.9l0 -3.15 -7.1 0 0 32.26 7.74 0 0 -17.94c0,-5.01 2.27,-7.51 6.93,-7.63zm35.46 25.56l0 -32.26 -7.1 0 0 4.31c-2.68,-3.55 -5.88,-5.07 -10.54,-5.07 -9.55,0 -16.42,7.16 -16.42,17 0,9.72 6.81,16.77 16.25,16.77 4.54,0 7.63,-1.46 10.71,-4.95l0 4.19 7.1 0zm-7.34 -15.9c0,5.36 -3.49,9.55 -9.38,9.55 -5.65,0 -9.55,-3.84 -9.55,-9.49 0,-5.88 3.9,-10.07 9.43,-10.07 5.53,0 9.49,4.13 9.49,10.02z"/>
  </g>
 </g>
</svg>
